<svg width="36" height="36" viewBox="0 0 36 36" fill="none" xmlns="http://www.w3.org/2000/svg">
<rect width="36" height="36" rx="6" fill="#0075B1"/>
<path d="M16.1248 16.1249C17.1604 16.1249 17.9998 15.2855 17.9998 14.25C17.9998 13.2145 17.1604 12.375 16.1248 12.375C15.0893 12.375 14.2499 13.2145 14.2499 14.25C14.2499 15.2855 15.0893 16.1249 16.1248 16.1249Z" stroke="white" stroke-width="1.33" stroke-linecap="round" stroke-linejoin="round"/>
<path d="M21.1247 23.6249C22.1602 23.6249 22.9997 22.7855 22.9997 21.75C22.9997 20.7145 22.1602 19.875 21.1247 19.875C20.0892 19.875 19.2498 20.7145 19.2498 21.75C19.2498 22.7855 20.0892 23.6249 21.1247 23.6249Z" stroke="white" stroke-width="1.33" stroke-linecap="round" stroke-linejoin="round"/>
<path d="M17.9999 14.25H24.8748" stroke="white" stroke-width="1.33" stroke-linecap="round" stroke-linejoin="round"/>
<path d="M11.125 14.25H14.2499" stroke="white" stroke-width="1.33" stroke-linecap="round" stroke-linejoin="round"/>
<path d="M22.9998 21.75H24.8747" stroke="white" stroke-width="1.33" stroke-linecap="round" stroke-linejoin="round"/>
<path d="M11.125 21.75H19.2499" stroke="white" stroke-width="1.33" stroke-linecap="round" stroke-linejoin="round"/>
</svg>
