<svg width="36" height="36" viewBox="0 0 36 36" fill="none" xmlns="http://www.w3.org/2000/svg">
<path d="M11.85 23.1C12.7 22.45 13.65 21.9375 14.7 21.5625C15.75 21.1875 16.85 21 18 21C19.15 21 20.25 21.1875 21.3 21.5625C22.35 21.9375 23.3 22.45 24.15 23.1C24.7333 22.4167 25.1875 21.6417 25.5125 20.775C25.8375 19.9083 26 18.9833 26 18C26 15.7833 25.2208 13.8958 23.6625 12.3375C22.1042 10.7792 20.2167 10 18 10C15.7833 10 13.8958 10.7792 12.3375 12.3375C10.7792 13.8958 10 15.7833 10 18C10 18.9833 10.1625 19.9083 10.4875 20.775C10.8125 21.6417 11.2667 22.4167 11.85 23.1ZM18 19C17.0167 19 16.1875 18.6625 15.5125 17.9875C14.8375 17.3125 14.5 16.4833 14.5 15.5C14.5 14.5167 14.8375 13.6875 15.5125 13.0125C16.1875 12.3375 17.0167 12 18 12C18.9833 12 19.8125 12.3375 20.4875 13.0125C21.1625 13.6875 21.5 14.5167 21.5 15.5C21.5 16.4833 21.1625 17.3125 20.4875 17.9875C19.8125 18.6625 18.9833 19 18 19ZM18 28C16.6167 28 15.3167 27.7375 14.1 27.2125C12.8833 26.6875 11.825 25.975 10.925 25.075C10.025 24.175 9.3125 23.1167 8.7875 21.9C8.2625 20.6833 8 19.3833 8 18C8 16.6167 8.2625 15.3167 8.7875 14.1C9.3125 12.8833 10.025 11.825 10.925 10.925C11.825 10.025 12.8833 9.3125 14.1 8.7875C15.3167 8.2625 16.6167 8 18 8C19.3833 8 20.6833 8.2625 21.9 8.7875C23.1167 9.3125 24.175 10.025 25.075 10.925C25.975 11.825 26.6875 12.8833 27.2125 14.1C27.7375 15.3167 28 16.6167 28 18C28 19.3833 27.7375 20.6833 27.2125 21.9C26.6875 23.1167 25.975 24.175 25.075 25.075C24.175 25.975 23.1167 26.6875 21.9 27.2125C20.6833 27.7375 19.3833 28 18 28Z" fill="#929292"/>
</svg>
